# xmcd
#
# Track frame offsets: 
#        150
#        23118
#        48225
#        90373
#        117359
#        153675
#        185425
#        198525
#        222750
#
# Disc length: 3411 seconds
#
# Revision: 5
# Processed by: cddbd v1.5.2PL0 Copyright (c) Steve Scherf et al.
# Submitted via: ExactAudioCopy v0.99pb5
#
DISCID=740d5109
DTITLE=Maurizio Pollini - Beethoven: Piano Sonatas No.22, 23, 24 and 27 
DTITLE=(CD1)
DYEAR=2003
DGENRE=Piano
TTITLE0=Klaviersonate Nr.22 F-dur op.54: 1. In tempo d'un Menuetto
TTITLE1=Klaviersonate Nr.22 F-dur op.54: 2. Allegretto
TTITLE2=Klaviersonate Nr.23 f-moll op.57 "Appassionata": 1. Allegro as
TTITLE2=sai
TTITLE3=Klaviersonate Nr.23 f-moll op.57 "Appassionata": 2. Andante co
TTITLE3=n moto - attacca:
TTITLE4=Klaviersonate Nr.23 f-moll op.57 "Appassionata": 3. Allegro, m
TTITLE4=a non troppo - Presto
TTITLE5=Klaviersonate Nr.24 Fis-dur op.78: 1. Adagio cantabile - Alleg
TTITLE5=ro, ma non troppo
TTITLE6=Klaviersonate Nr.24 Fis-dur op.78: 2. Allegro vivace
TTITLE7=Klaviersonate Nr.27 d-moll op.90: 1. Mit Lebhaftigkeit und dur
TTITLE7=chaus mit Empfindung und Ausdruck
TTITLE8=Klaviersonate Nr.27 d-moll op.90: 2. Nicht zu geschwind und se
TTITLE8=hr singbar vorzutragen
EXTD=
EXTT0=
EXTT1=
EXTT2=
EXTT3=
EXTT4=
EXTT5=
EXTT6=
EXTT7=
EXTT8=
PLAYORDER=
